<svg aria-hidden="true" style="position: absolute; width: 0; height: 0; overflow: hidden;" version="1.1" xmlns="http://www.w3.org/2000/svg" xmlns:xlink="http://www.w3.org/1999/xlink">
<defs>
<symbol id="icon-menu" viewBox="0 0 32 32">
<path d="M30.4 6.4c0 0.884-0.716 1.6-1.6 1.6v0h-25.6c-0.884 0-1.6-0.716-1.6-1.6s0.716-1.6 1.6-1.6v0h25.6c0.884 0 1.6 0.716 1.6 1.6v0zM30.4 16c0 0.884-0.716 1.6-1.6 1.6v0h-25.6c-0.884 0-1.6-0.716-1.6-1.6s0.716-1.6 1.6-1.6v0h25.6c0.884 0 1.6 0.716 1.6 1.6v0zM28.8 27.2c0.884 0 1.6-0.716 1.6-1.6s-0.716-1.6-1.6-1.6v0h-25.6c-0.884 0-1.6 0.716-1.6 1.6s0.716 1.6 1.6 1.6v0h25.6z"></path>
</symbol>
<symbol id="icon-facebook" viewBox="0 0 32 32">
<path fill="#b392ac" style="fill: var(--color1, #b392ac)" d="M26.667 1.333h-21.333c-2.209 0-4 1.791-4 4v21.333c0 2.209 1.791 4 4 4h21.333c2.209 0 4-1.791 4-4v-21.333c0-2.209-1.791-4-4-4zM26.667 4c0.736 0 1.333 0.597 1.333 1.333v21.333c0 0.736-0.597 1.333-1.333 1.333h-6.667v-9.333h2.768c0.574 0 1.083-0.367 1.265-0.912l0.591-1.772c0.216-0.648-0.266-1.316-0.949-1.316h-3.675v-2.667c0-0.667 0.667-1.333 1.333-1.333h2.667c0.736 0 1.333-0.597 1.333-1.333v-0.915c0-0.431-0.275-0.817-0.692-0.927-1.748-0.461-3.308-0.461-3.308-0.461-3.333 0-5.333 2.303-5.333 4.303v3.333h-2.667c-0.736 0-1.333 0.597-1.333 1.333v1.333c0 0.736 0.597 1.333 1.333 1.333h2.667v9.333h-10.667c-0.736 0-1.333-0.597-1.333-1.333v-21.333c0-0.736 0.597-1.333 1.333-1.333h21.333z"></path>
</symbol>
<symbol id="icon-instagram" viewBox="0 0 32 32">
<path fill="#b392ac" style="fill: var(--color1, #b392ac)" d="M16 24c-4.418 0-8-3.582-8-8s3.582-8 8-8c4.418 0 8 3.582 8 8s-3.582 8-8 8zM16 21.333c2.945 0 5.333-2.388 5.333-5.333s-2.388-5.333-5.333-5.333c-2.946 0-5.333 2.388-5.333 5.333s2.388 5.333 5.333 5.333z"></path>
<path fill="#b392ac" style="fill: var(--color1, #b392ac)" d="M24 6.667c-0.736 0-1.333 0.597-1.333 1.333s0.597 1.333 1.333 1.333c0.736 0 1.333-0.597 1.333-1.333s-0.597-1.333-1.333-1.333z"></path>
<path fill="#b392ac" style="fill: var(--color1, #b392ac)" d="M2.205 5.701c0.767-1.505 1.991-2.729 3.496-3.496 1.711-0.872 3.951-0.872 8.432-0.872h3.733c4.48 0 6.721 0 8.432 0.872 1.505 0.767 2.729 1.991 3.496 3.496 0.872 1.711 0.872 3.951 0.872 8.432v3.733c0 4.48 0 6.721-0.872 8.432-0.767 1.505-1.991 2.729-3.496 3.496-1.711 0.872-3.951 0.872-8.432 0.872h-3.733c-4.48 0-6.721 0-8.432-0.872-1.505-0.767-2.729-1.991-3.496-3.496-0.872-1.711-0.872-3.951-0.872-8.432v-3.733c0-4.48 0-6.721 0.872-8.432zM17.867 4h-3.733c-2.284 0-3.837 0.002-5.037 0.1-1.169 0.096-1.767 0.269-2.184 0.481-1.004 0.511-1.819 1.327-2.331 2.331-0.213 0.417-0.386 1.015-0.481 2.184-0.098 1.2-0.1 2.753-0.1 5.037v3.733c0 2.284 0.002 3.837 0.1 5.037 0.096 1.169 0.269 1.767 0.481 2.184 0.511 1.003 1.327 1.819 2.331 2.331 0.417 0.213 1.015 0.386 2.184 0.481 1.2 0.098 2.753 0.1 5.037 0.1h3.733c2.284 0 3.837-0.002 5.037-0.1 1.169-0.095 1.767-0.269 2.184-0.481 1.003-0.511 1.819-1.327 2.331-2.331 0.213-0.417 0.386-1.015 0.481-2.184 0.098-1.2 0.1-2.753 0.1-5.037v-3.733c0-2.284-0.002-3.837-0.1-5.037-0.095-1.169-0.269-1.767-0.481-2.184-0.511-1.004-1.327-1.819-2.331-2.331-0.417-0.213-1.015-0.386-2.184-0.481-1.2-0.098-2.753-0.1-5.037-0.1z"></path>
</symbol>
<symbol id="icon-telegram" viewBox="0 0 32 32">
<path fill="#b392ac" style="fill: var(--color1, #b392ac)" d="M30.816 5.993c0.424-2.066-1.606-3.784-3.573-3.023l-24.119 9.319c-2.197 0.849-2.295 3.922-0.156 4.909l5.252 2.424 2.499 8.745c0.13 0.454 0.49 0.806 0.948 0.925s0.943-0.014 1.277-0.348l3.849-3.849 5.392 4.044c1.565 1.174 3.819 0.319 4.212-1.598l4.42-21.547zM4.084 14.775l24.119-9.319-4.42 21.547-6.317-4.738c-0.531-0.398-1.274-0.345-1.743 0.124l-1.649 1.649 0.495-2.724 9.705-9.705c0.472-0.472 0.522-1.221 0.117-1.752s-1.141-0.68-1.721-0.348l-13.404 7.659-5.184-2.393zM10.903 19.305l0.809 2.83 0.31-1.707c0.049-0.267 0.177-0.513 0.369-0.704l2.96-2.96-4.448 2.541z"></path>
</symbol>
<symbol id="icon-yoga2" viewBox="0 0 32 32">
<path fill="#b392ac" style="fill: var(--color1, #b392ac)" d="M31.746 26.775v0c-0.176-0.135-0.575-0.398-0.822-0.429l-0.519-0.087c-0.141-0.028-0.383-0.113-0.527-0.185l-0.579-0.319c-0.179-0.107-0.546-0.264-0.849-0.342-0.272-0.070-0.796-0.157-1.171-0.207-0.333-0.045-0.625-0.205-0.689-0.28-0.131-0.153-0.258-0.25-0.359-0.285-0.020-0.014-0.144-0.117-0.567-0.728-0.192-0.277-0.422-0.675-0.625-1.026-0.147-0.254-0.286-0.494-0.4-0.674-0.283-0.446-0.527-0.694-0.768-0.784-0.252-0.094-0.581-0.489-0.8-0.751-0.162-0.194-0.251-0.297-0.324-0.345-0.144-0.136-0.81-1.324-1.223-2.446-0.441-1.197-0.781-2.17-1.009-3.024-0.039-0.145-0.072-0.307-0.11-0.489-0.15-0.722-0.356-1.712-1.106-3.083-0.475-0.869-1.428-2.198-2.124-2.963-1.030-1.131-1.963-1.767-2.864-2.38-0.297-0.202-0.594-0.405-0.897-0.625-1.402-1.024-2.783-1.218-4.394-0.572-1.339 0.536-1.541 2.539-1.55 2.65v0.658c0 0.349-0.095 0.78-0.18 0.95l-0.572 1.238c-0.21 0.471-0.455 1.314-0.558 1.919-0.098 0.57-0.375 1.638-0.618 2.382-0.235 0.719-0.65 1.596-0.908 1.914l-1.082 1.381c-0.334 0.44-0.681 1.040-0.789 1.366l-0.184 0.555-0.299 1.136c-0.163 0.616-0.452 1.499-0.645 1.967l-0.351 0.849-0.707 1.416-0.268 0.448c-0.032 0.053-0.309 0.523-0.309 0.771 0 0.19 0.125 0.433 0.24 0.578 0.163 0.202 0.542 0.355 0.833 0.401 0.283 0.044 0.748 0.078 1.059 0.078h2.84c0.521 0 1.18-0.060 1.431-0.174l0.329-0.149c0.064-0.030 0.262-0.119 0.288-0.324 0.015-0.116-0.033-0.228-0.129-0.307-0.117-0.095-0.289-0.14-0.471-0.188-0.058-0.015-0.116-0.030-0.166-0.046l-1.264-0.455-0.849-0.351-0.268-0.134c-0.136-0.069-0.316-0.174-0.395-0.231-0.015-0.011-0.029-0.029-0.034-0.015 0.009-0.070 0.032-0.189 0.053-0.278 0.022-0.097 0.071-0.255 0.107-0.351 0.037-0.097 0.105-0.243 0.15-0.326l0.565-1.087 0.377-0.668 0.631-0.931 0.816-1.27 0.944-1.655 0.561-0.827 0.344-0.463c0.195-0.262 0.471-0.683 0.617-0.94l0.48-0.854c0.131-0.238 0.315-0.626 0.419-0.884 0.089-0.223 0.202-0.4 0.23-0.428 0.182-0.129 0.667-0.748 0.687-0.774l0.468-0.599 0.224-0.254c0.149-0.168 0.419-0.561 0.596-0.845 0.181-0.292 0.418-0.642 0.517-0.763 0.028-0.035 0.058-0.066 0.087-0.094 0.035 0.163 0.068 0.428 0.075 0.601 0.009 0.224 0.044 0.538 0.079 0.717 0.040 0.198 0.132 0.451 0.215 0.584 0.078 0.126 0.223 0.309 0.339 0.425l0.704 0.733c-0.014 0.205-0.008 0.431 0.045 0.703 0.114 0.588 0.729 1.149 1.316 1.202 0.12 0.011 0.231 0.016 0.335 0.016 0.169 0 0.307-0.020 0.433-0.049l0.037 0.001c0.090 0.006 0.196 0.044 0.22 0.061 0.038 0.031 0.183 0.192 0.345 0.405 0.11 0.144 0.338 0.443 0.373 0.602 0.031 0.14 0.171 0.393 0.362 0.689-0.093 0.047-0.188 0.087-0.274 0.149-1.119 0.801-1.233 2.562-0.256 3.928s2.682 1.826 3.8 1.026c0.195-0.139 0.347-0.316 0.481-0.505 0.075 0.087 0.157 0.183 0.252 0.299l0.49 0.596 1.651 1.801 0.598 0.598c0.342 0.342 0.775 0.734 0.987 0.893 0.209 0.156 0.537 0.325 0.762 0.325 0.001 0 0.001 0 0.001 0 0.057 0.004 0.272 0.089 0.466 0.23 0.196 0.143 0.455 0.37 0.567 0.497 0.178 0.202 0.487 0.349 0.733 0.349h3.946c0.396 0 0.536-0.165 0.583-0.304 0.037-0.108 0.055-0.321-0.233-0.543zM11.237 11.305c-0.181 0.291-0.428 0.643-0.541 0.77l-0.713 0.88c-0.286 0.367-0.521 0.623-0.568 0.66-0.212 0.149-0.406 0.624-0.428 0.679-0.094 0.236-0.269 0.604-0.388 0.82l-0.477 0.849c-0.136 0.241-0.396 0.637-0.579 0.883l-0.93 1.328-0.95 1.664-1.442 2.194-0.958 1.782c-0.055 0.099-0.135 0.274-0.18 0.392s-0.104 0.309-0.131 0.426c-0.027 0.118-0.057 0.28-0.065 0.36-0.023 0.203 0.12 0.408 0.263 0.512 0.103 0.075 0.306 0.195 0.473 0.278l1.163 0.504 0.969 0.363 0.327 0.104c-0.199 0.046-0.64 0.097-1.109 0.097h-2.84c-0.283 0-0.719-0.032-0.973-0.072-0.226-0.035-0.441-0.149-0.482-0.197-0.069-0.087-0.115-0.201-0.119-0.216 0.009-0.054 0.092-0.267 0.23-0.498l0.279-0.467 0.726-1.453 0.359-0.867c0.201-0.487 0.502-1.402 0.669-2.039l0.293-1.119 0.179-0.538c0.089-0.268 0.413-0.82 0.706-1.205l0.562-0.74 0.508-0.628c0.303-0.374 0.744-1.293 1.005-2.092 0.25-0.765 0.536-1.869 0.638-2.461 0.095-0.557 0.328-1.358 0.518-1.786l0.353-0.796 0.209-0.419c0.056-0.111 0.102-0.267 0.143-0.435 0.794 0.063 3.406 0.394 3.619 1.992-0.105 0.15-0.217 0.323-0.319 0.486zM12.077 10.219c-0.029 0.021-0.058 0.041-0.085 0.064-0.609-1.598-3.1-1.943-3.971-2.013 0.006-0.071 0.012-0.143 0.012-0.21l-0.001-0.632c0.002-0.017 0.175-1.748 1.2-2.158 1.428-0.572 2.612-0.405 3.856 0.504 0.181 0.133 0.359 0.252 0.538 0.376-1.387 1.361-1.537 3.462-1.549 4.069zM13.669 12.934l-0.249-0.258c-0.083-0.083-0.204-0.235-0.259-0.323-0.044-0.071-0.115-0.258-0.143-0.401-0.030-0.149-0.062-0.437-0.070-0.628-0.009-0.223-0.051-0.548-0.097-0.741-0.040-0.165-0.117-0.292-0.215-0.378 0.017-0.574 0.176-2.541 1.459-3.727 0.879 0.599 1.717 1.184 2.668 2.229 0.397 0.437 0.88 1.063 1.304 1.675-1.415 1.744-3.888 2.428-4.399 2.553zM16.195 15.171c-0.093-0.029-0.188-0.046-0.266-0.051-0.030-0.002-0.36 0.072-0.789 0.033-0.345-0.031-0.75-0.404-0.818-0.752-0.077-0.399-0.079-0.873-0.17-0.964l-0.040-0.041c0.886-0.249 2.936-0.967 4.282-2.529 0.16 0.248 0.303 0.485 0.417 0.693 0.334 0.609 0.551 1.138 0.705 1.601-1.391 1.705-3.302 2.004-3.321 2.007l0.001 0.003zM20.13 22.070c-0.86 0.616-2.205 0.215-2.998-0.893s-0.736-2.509 0.124-3.124c0.083-0.059 0.174-0.101 0.266-0.142 0.181 0.251 0.378 0.508 0.57 0.741l1.31 1.593c0.57 0.693 0.953 1.147 1.143 1.357-0.108 0.181-0.241 0.344-0.415 0.468zM27.451 27.061c-0.078 0-0.238-0.074-0.314-0.16-0.139-0.157-0.428-0.41-0.657-0.578-0.223-0.163-0.566-0.338-0.79-0.338-0.055-0.003-0.257-0.082-0.432-0.213-0.187-0.14-0.612-0.526-0.927-0.841l-0.588-0.588-1.636-1.784-0.477-0.583c-0.113-0.138-0.277-0.334-0.408-0.48l-0.453-0.489c-0.209-0.244-0.53-0.626-0.936-1.119l-1.309-1.593c-0.149-0.181-0.284-0.356-0.408-0.522l-0.378-0.531c-0.212-0.317-0.341-0.547-0.359-0.617-0.056-0.259-0.265-0.548-0.475-0.823-0.021-0.027-0.082-0.105-0.151-0.19 0.663-0.185 1.893-0.662 2.952-1.813 0.064 0.253 0.113 0.483 0.156 0.688 0.040 0.193 0.076 0.364 0.117 0.519 0.234 0.875 0.578 1.862 1.025 3.074 0.375 1.017 1.131 2.512 1.419 2.705 0.036 0.028 0.14 0.152 0.224 0.252 0.271 0.325 0.643 0.769 1.033 0.915 0.030 0.012 0.193 0.091 0.492 0.562 0.111 0.174 0.246 0.408 0.388 0.654 0.219 0.377 0.444 0.768 0.648 1.064 0.536 0.773 0.685 0.875 0.803 0.92 0.006 0.002 0.060 0.025 0.159 0.139 0.182 0.213 0.629 0.414 1.038 0.469 0.35 0.047 0.856 0.131 1.106 0.196 0.239 0.061 0.561 0.197 0.699 0.28l0.617 0.339c0.188 0.094 0.481 0.196 0.667 0.233l0.557 0.093c0.043 0.008 0.171 0.065 0.325 0.16 0 0-3.725 0-3.725 0z"></path>
</symbol>
<symbol id="icon-yoga3" viewBox="0 0 32 32">
<path fill="#b392ac" style="fill: var(--color1, #b392ac)" d="M25.563 30.663l-0.16-0.266-0.427-0.853-0.212-0.515c-0.117-0.281-0.29-0.811-0.388-1.183l-0.183-0.692-0.111-0.337c-0.068-0.203-0.283-0.575-0.49-0.848l-0.656-0.838c-0.151-0.189-0.399-0.708-0.538-1.138-0.146-0.449-0.312-1.091-0.372-1.433-0.063-0.371-0.214-0.889-0.343-1.179l-0.348-0.751c-0.042-0.085-0.102-0.334-0.102-0.545l-0.002-0.254c0.006-0.023 0.004-0.044 0.002-0.060v-0.090c-0.134-1.585-1.131-3.249-1.335-3.486-0.151-0.177-0.181-0.659-0.209-1.091-0.020-0.32-0.128-0.974-0.225-1.55l-0.009-0.056c-0.062-0.372-0.121-0.724-0.133-0.861-0.032-0.361-0.198-1.133-0.523-1.782-0.173-0.347-0.345-0.985-0.508-1.898l-0.012-0.067c-0.027-0.145-0.013-0.955 0.004-1.487l-0.002-0.68c0-0.374-0.039-0.904-0.087-1.182l-0.085-0.496c-0.002-0.006-0.155-0.627-0.183-0.776-0.029-0.156-0.053-0.371-0.053-0.477 0-0.118 0.025-0.415 0.056-0.664l0.058-0.478 0.083-1.122 0.042-0.382c0.028-0.249-0.022-0.629-0.113-0.865-0.097-0.254-0.279-0.282-0.353-0.282-0.127 0-0.306 0.069-0.431 0.396l-0.174 0.461-0.268 0.551c-0.145 0.297-0.397 0.733-0.562 0.972-0.22 0.321-0.316 0.746-0.227 1.010 0.079 0.238 0.315 0.535 0.548 0.69 0.050 0.037 0.221 0.428 0.253 1.056l0.001 0.749c-0.011 0.106-0.113 1.072-0.389 2.051-0.339 1.208 0.224 2.537 0.47 2.948 0.207 0.344 0.223 0.485 0.3 1.165 0.015 0.135 0.033 0.291 0.055 0.471 0.116 0.962 0.024 3.36 0.002 3.885-0.539 0.778-0.354 1.429-0.243 1.819 0.025 0.088 0.057 0.196 0.054 0.236-0.013 0.211-0.168 0.364-0.166 0.364-0.555 0.383-1.062 0.751-1.63 1.376-0.424 0.466-1.005 1.277-1.296 1.808-0.459 0.839-0.585 1.445-0.677 1.886-0.023 0.108-0.043 0.206-0.066 0.291-0.137 0.515-0.342 1.102-0.609 1.827-0.255 0.69-0.654 1.389-0.713 1.446-0.052 0.034-0.105 0.094-0.212 0.223-0.12 0.143-0.32 0.382-0.455 0.433-0.16 0.060-0.319 0.22-0.499 0.503-0.063 0.1-0.138 0.228-0.218 0.366l-0.027 0.045c-0.115 0.199-0.259 0.449-0.376 0.616-0.22 0.318-0.302 0.402-0.321 0.419-0.090 0.035-0.177 0.122-0.235 0.189-0.022 0.026-0.177 0.12-0.374 0.146-0.229 0.030-0.549 0.083-0.717 0.127-0.19 0.049-0.42 0.148-0.53 0.214l-0.348 0.192c-0.082 0.041-0.223 0.091-0.3 0.105l-0.312 0.052c-0.204 0.027-0.518 0.264-0.531 0.273-0.209 0.16-0.193 0.323-0.165 0.405 0.029 0.087 0.122 0.231 0.418 0.231h2.39c0.17 0 0.374-0.097 0.495-0.234 0.063-0.073 0.216-0.206 0.332-0.291 0.109-0.080 0.226-0.124 0.242-0.126 0.153 0 0.363-0.105 0.503-0.211 0.131-0.099 0.397-0.339 0.605-0.547l0.364-0.363 1.003-1.094 0.296-0.361c0.034-0.041 0.065-0.080 0.095-0.113 0.082 0.104 0.164 0.185 0.255 0.251 0.23 0.164 0.508 0.251 0.805 0.251 0.59 0 1.2-0.34 1.593-0.889 0.614-0.858 0.538-1.969-0.171-2.476-0.034-0.025-0.070-0.044-0.106-0.062 0.107-0.171 0.17-0.297 0.187-0.375 0.017-0.081 0.159-0.266 0.214-0.337 0.102-0.134 0.182-0.22 0.191-0.228 0.012-0.007 0.061-0.024 0.096-0.027l0.007-0.002c0.159 0.037 0.302 0.039 0.485 0.021 0.383-0.034 0.785-0.401 0.86-0.783 0.028-0.143 0.037-0.275 0.029-0.413l0.405-0.422c0.073-0.074 0.166-0.19 0.215-0.27 0.054-0.087 0.112-0.245 0.139-0.377 0.023-0.113 0.044-0.308 0.050-0.445 0.002-0.058 0.009-0.133 0.019-0.207 0.069 0.095 0.175 0.255 0.264 0.397 0.108 0.173 0.274 0.414 0.368 0.52l0.133 0.15 0.286 0.367c0.094 0.12 0.325 0.406 0.418 0.47 0.012 0.012 0.074 0.108 0.125 0.237 0.062 0.156 0.175 0.396 0.257 0.544l0.29 0.518c0.089 0.156 0.259 0.416 0.378 0.576l0.206 0.279 0.338 0.497 0.574 1.006 0.495 0.771 0.379 0.559 0.227 0.403 0.344 0.66c0.026 0.047 0.064 0.131 0.087 0.19 0.022 0.056 0.049 0.149 0.062 0.202 0.009 0.035 0.017 0.080 0.023 0.116-0.050 0.034-0.144 0.088-0.215 0.124l-0.158 0.079-0.511 0.211-0.766 0.277c-0.027 0.008-0.056 0.016-0.098 0.027-0.113 0.029-0.229 0.060-0.311 0.127-0.079 0.063-0.116 0.154-0.104 0.249 0.013 0.108 0.087 0.192 0.215 0.25l0.199 0.090c0.168 0.077 0.582 0.112 0.894 0.112h1.72c0.194 0 0.48-0.021 0.653-0.048 0.183-0.029 0.433-0.125 0.548-0.267 0.080-0.1 0.16-0.261 0.16-0.393 0.002-0.179-0.186-0.49-0.195-0.504zM17.273 10.639c-0.299-0.503-0.68-1.646-0.419-2.573 0.309-1.097 0.405-2.145 0.406-2.161v-0.672c0.001-0.008 0.010-0.195-0.001-0.303l-0.044-0.333c-0.059-0.336-0.179-0.769-0.413-0.924-0.141-0.095-0.311-0.305-0.356-0.439-0.025-0.076 0.011-0.348 0.166-0.575 0.176-0.256 0.445-0.721 0.599-1.036l0.278-0.571 0.118-0.311c0.019 0.128 0.027 0.26 0.016 0.351l-0.043 0.391-0.083 1.121-0.057 0.467c-0.034 0.287-0.058 0.59-0.058 0.722 0 0.137 0.026 0.382 0.059 0.568 0.012 0.060 0.046 0.193 0.090 0.356 0.055 0.204 0.138 0.587 0.185 0.855l0.044 0.256c0.025 0.138 0.044 0.545 0.044 0.907v0.66c-0.011 0.312-0.040 1.347 0.003 1.582l0.013 0.071c0.064 0.356 0.26 1.44 0.55 2.021 0.295 0.59 0.446 1.287 0.474 1.611 0.014 0.159 0.074 0.512 0.142 0.924l0.004 0.019c0.089 0.541 0.202 1.214 0.22 1.511 0.009 0.138 0.018 0.282 0.032 0.421-0.596-0.134-1.122-0.045-1.523 0.253 0.033-0.977 0.066-2.568-0.028-3.345-0.022-0.18-0.039-0.335-0.055-0.469-0.080-0.707-0.104-0.921-0.363-1.355zM15.583 26.976c0.013 0.342-0.102 0.703-0.325 1.015-0.303 0.424-0.76 0.686-1.193 0.686-0.196 0-0.378-0.057-0.526-0.162-0.077-0.055-0.144-0.127-0.205-0.22 0.134-0.151 0.365-0.427 0.66-0.786l0.794-0.965c0.103-0.124 0.21-0.264 0.314-0.405 0.034 0.016 0.067 0.034 0.098 0.055 0.234 0.167 0.371 0.444 0.384 0.78zM15.412 24.717l-0.013 0.016c-0.131 0.173-0.264 0.357-0.299 0.523-0.008 0.027-0.070 0.146-0.208 0.352l-0.228 0.32c-0.074 0.1-0.155 0.205-0.245 0.313l-0.793 0.965c-0.245 0.298-0.44 0.529-0.564 0.675l-0.276 0.297c-0.080 0.090-0.179 0.209-0.249 0.293l-0.287 0.35-0.989 1.077-0.356 0.357c-0.189 0.19-0.443 0.42-0.554 0.504-0.097 0.072-0.205 0.111-0.22 0.115-0.153 0-0.371 0.109-0.52 0.218-0.142 0.104-0.321 0.262-0.409 0.361-0.034 0.039-0.114 0.073-0.138 0.073h-1.807l0.098-0.016c0.121-0.024 0.302-0.087 0.424-0.149l0.377-0.206c0.080-0.048 0.27-0.128 0.405-0.163 0.147-0.037 0.452-0.089 0.661-0.116 0.267-0.035 0.55-0.165 0.672-0.308 0.044-0.052 0.068-0.064 0.068-0.064 0.088-0.034 0.182-0.098 0.519-0.583 0.126-0.183 0.264-0.421 0.396-0.649l0.025-0.043c0.077-0.131 0.149-0.256 0.209-0.35 0.174-0.273 0.263-0.312 0.264-0.312 0.255-0.097 0.485-0.373 0.654-0.575 0.087-0.104 0.116-0.135 0.121-0.14 0.205-0.136 0.679-1.108 0.886-1.673 0.27-0.732 0.479-1.331 0.622-1.867 0.024-0.093 0.046-0.196 0.072-0.317 0.018-0.090 0.039-0.187 0.064-0.291 0.584 0.592 1.235 0.871 1.631 0.996-0.006 0.007-0.011 0.013-0.014 0.019zM16.987 23.631c-0.011 0.089-0.022 0.19-0.039 0.282-0.035 0.182-0.255 0.383-0.433 0.401-0.201 0.018-0.363-0.006-0.43-0.016-0.020-0.003-0.034-0.004-0.044-0.004-0.001 0-0.001 0-0.001 0-0.048 0.003-0.104 0.012-0.158 0.028-0.118-0.021-1.156-0.229-1.933-1.16 0.107-0.311 0.241-0.612 0.409-0.921 0.055-0.1 0.123-0.214 0.201-0.338 0.787 0.868 1.927 1.294 2.473 1.457-0.021 0.057-0.032 0.144-0.046 0.272zM17.839 21.598c-0.029 0.123-0.056 0.325-0.060 0.462-0.005 0.115-0.023 0.285-0.041 0.371-0.016 0.083-0.057 0.188-0.078 0.22-0.029 0.046-0.098 0.134-0.148 0.184l-0.123 0.127c-0.36-0.092-1.736-0.497-2.556-1.472 0.255-0.365 0.534-0.723 0.754-0.964 0.571-0.627 1.094-0.991 1.558-1.308 0.702 0.685 0.805 1.771 0.82 2.139-0.060 0.062-0.104 0.145-0.127 0.242zM18.437 21.248c-0.045-0.526-0.282-1.704-1.002-2.446 0.042-0.103 0.066-0.205 0.074-0.308 0.008-0.12-0.028-0.246-0.072-0.399-0.103-0.361-0.243-0.855 0.216-1.474l0.025-0.044c0.002-0.007 0.249-0.6 1.046-0.6 0.186 0 0.389 0.033 0.605 0.099 0.049 0.185 0.118 0.327 0.209 0.433 0.185 0.217 1.128 1.825 1.22 3.281l-0.001 0.3c0 0.021 0.001 0.042 0.003 0.064-0.516 0.049-1.858 0.256-2.323 1.098zM25.229 31.261c-0.016 0.015-0.127 0.077-0.251 0.097-0.151 0.022-0.41 0.041-0.579 0.041h-1.721c-0.129 0-0.259-0.007-0.371-0.016l0.513-0.193 0.707-0.307c0.052-0.026 0.109-0.058 0.162-0.088l0.058 0.154-0.022-0.175c0.038-0.024 0.073-0.046 0.099-0.065 0.105-0.077 0.204-0.221 0.187-0.373-0.006-0.052-0.023-0.153-0.041-0.226-0.017-0.079-0.055-0.198-0.081-0.267-0.030-0.077-0.081-0.185-0.113-0.245l-0.584-1.084-0.871-1.326-0.579-1.012-0.565-0.806c-0.11-0.15-0.266-0.386-0.346-0.528l-0.289-0.515c-0.070-0.125-0.173-0.345-0.231-0.489-0.023-0.057-0.143-0.343-0.282-0.44-0.021-0.017-0.155-0.162-0.332-0.388l-0.434-0.535c-0.065-0.074-0.215-0.288-0.32-0.457-0.058-0.091-0.122-0.189-0.179-0.274 0.142-0.861 1.546-1.070 2.066-1.116 0.024 0.092 0.050 0.166 0.078 0.22l0.125 0.251 0.214 0.482c0.114 0.253 0.252 0.731 0.31 1.065 0.060 0.359 0.236 1.032 0.388 1.501 0.159 0.49 0.432 1.056 0.621 1.289l0.306 0.379 0.341 0.448c0.17 0.223 0.364 0.555 0.417 0.709l0.106 0.322 0.178 0.678c0.103 0.388 0.286 0.946 0.409 1.244l0.219 0.529 0.442 0.885 0.169 0.283c0.069 0.115 0.113 0.22 0.126 0.261-0.012 0.021-0.030 0.060-0.053 0.089z"></path>
</symbol>
<symbol id="icon-yoga1" viewBox="0 0 32 32">
<path fill="#b392ac" style="fill: var(--color1, #b392ac)" d="M14.594 7.966c1.088 0 1.973-1.080 1.973-2.409s-0.885-2.409-1.973-2.409-1.973 1.080-1.973 2.409 0.885 2.409 1.973 2.409zM14.594 3.603c0.837 0 1.518 0.876 1.518 1.954s-0.681 1.954-1.518 1.954c-0.837 0-1.518-0.877-1.518-1.954s0.681-1.954 1.518-1.954zM31.834 25.994c-0.292-0.283-0.725-0.633-0.963-0.781-0.247-0.153-0.777-0.372-1.182-0.486-0.386-0.111-1.011-0.36-1.394-0.556l-0.708-0.359-0.873-0.495c-0.487-0.277-1.159-0.603-1.499-0.727l-0.582-0.212-0.86-0.408c-0.218-0.103-0.517-0.257-0.842-0.434-0.454-0.248-0.993-0.687-1.212-0.942-0.246-0.287-0.758-0.752-1.14-1.038l-0.686-0.511-0.78-0.505c-0.424-0.275-1.031-0.753-1.355-1.066l-0.599-0.581-0.198-0.196-0.369-0.478c-0.044-0.079-0.073-0.139-0.089-0.187-0.060-0.18-0.117-0.55-0.127-0.823-0.011-0.279 0.006-0.71 0.037-0.961 0.031-0.248 0.116-0.692 0.19-0.989 0.071-0.287 0.226-0.185 0.347-0.41 0.023-0.044 0.050-0.101 0.081-0.167 0.127-0.269 0.318-0.675 0.615-0.842 0.207-0.117 0.482-0.205 0.773-0.248l0.023-0.005c0.779-0.248 2.396-0.623 3.174-0.707 0.709-0.076 1.759-0.363 2.526-0.573l0.317-0.087c0.235-0.063 0.63-0.154 0.898-0.212 0.436-0.095 1.019-0.204 1.655-0.204 0.16 0 0.316 0.007 0.465 0.020 0.502 0.044 1.002 0.016 1.45-0.082 0.242-0.052 0.336-0.204 0.345-0.329 0.010-0.158-0.098-0.293-0.289-0.363-0.519-0.185-1.284-0.275-2.338-0.275-1.456 0-3.469 0.173-6.338 0.544-0.897 0.117-1.672 0.257-2.303 0.418-0.051 0.013-0.131 0.021-0.209 0.021-0.053 0-0.081-0.004-0.084-0.005l-0.151-0.052c-0.293-0.079-0.59-0.185-0.862-0.283-0.183-0.065-0.356-0.127-0.486-0.164-0.166-0.047-0.369-0.083-0.619-0.111-0.263-0.029-0.681-0.045-0.94-0.045s-0.677 0.016-0.938 0.045c-0.257 0.029-0.453 0.064-0.619 0.111-0.131 0.037-0.304 0.099-0.487 0.164-0.265 0.095-0.565 0.203-0.862 0.284l-0.174 0.048c-0.053 0.015-0.219 0.009-0.304-0.013-0.632-0.161-1.406-0.302-2.303-0.418-2.869-0.371-4.883-0.544-6.338-0.544-1.054 0-1.82 0.090-2.338 0.276-0.191 0.069-0.3 0.204-0.29 0.361 0.008 0.125 0.103 0.277 0.346 0.33 0.449 0.097 0.949 0.125 1.449 0.082 0.149-0.013 0.305-0.020 0.465-0.020 0.637 0 1.219 0.109 1.656 0.204 0.27 0.059 0.667 0.15 0.898 0.211l0.322 0.089c0.766 0.209 1.814 0.497 2.52 0.572 0.772 0.083 2.403 0.461 3.207 0.714 0.009 0.001 0.873 0.125 1.020 0.788l0.053 0.187 0.022 0.096c0.008 0.039 0.021 0.079 0.039 0.119l0.057 0.197 0.205 0.682 0.102 0.496c0.054 0.263 0.098 0.684 0.098 0.939 0 0.259-0.038 0.696-0.085 0.976-0.014 0.083-0.034 0.179-0.059 0.281l-0.006-0.002-0.042 0.183c-0.041 0.142-0.084 0.267-0.12 0.348-0.007 0.013-0.012 0.024-0.020 0.036-0.013 0.026-0.028 0.051-0.054 0.085-0.013 0.015-0.028 0.027-0.046 0.044l-0.108 0.077c-0.036 0.017-0.058 0.019-0.066 0.019h-0.301l-2.846 0.144h-0.918c-0.518 0-1.191 0.061-1.5 0.137-0.312 0.076-0.672 0.189-0.821 0.259s-0.407 0.239-0.591 0.388c-0.215 0.174-0.369 0.476-0.358 0.702l0.016 0.316 0.029 0.277c0.019 0.18 0.149 0.508 0.302 0.76 0.13 0.215 0.319 0.624 0.421 0.912 0.107 0.307 0.372 0.923 0.59 1.373 0.21 0.436 0.462 1.022 0.56 1.306 0.095 0.28 0.197 0.634 0.226 0.791 0.031 0.164 0.055 0.39 0.055 0.505 0 0.122-0.026 0.433-0.057 0.693l-0.059 0.489-0.087 1.158-0.044 0.393c-0.027 0.246 0.022 0.623 0.113 0.857 0.085 0.221 0.235 0.245 0.297 0.245 0.109 0 0.262-0.063 0.377-0.361l0.183-0.481 0.276-0.568c0.15-0.307 0.413-0.76 0.584-1.010 0.211-0.309 0.309-0.728 0.227-0.977-0.078-0.232-0.309-0.523-0.538-0.675-0.092-0.062-0.281-0.559-0.298-1.252l-0.030-1.177-0.19-2.112c-0.002-0.017 0.002-0.022 0.008-0.030 0.026-0.029 0.106-0.059 0.255-0.059 0.137 0 0.297 0.026 0.45 0.074 0.553 0.171 1.237 0.35 1.524 0.399l0.514 0.088 0.612 0.088c0.346 0.049 0.894 0.089 1.22 0.089h1.799v0.018l0.189-0.018h0.832c0.057 0.002 0.13 0.013 0.194 0.024l0.011-0.064 0.010 0.068 0.035 0.007c0.123 0.025 0.28 0.064 0.467 0.115l0.227 0.065v-0.001c0.527 0.153 1.149 0.362 1.763 0.592l3.872 1.452 0.495 0.204c0.267 0.11 0.714 0.334 0.997 0.5l0.934 0.539c0.23 0.132 0.715 0.341 1.081 0.466 0.361 0.123 1.088 0.29 1.618 0.372l0.957 0.146 0.45 0.044c0.198 0.020 0.491 0.203 0.628 0.392 0.193 0.265 0.568 0.538 0.854 0.622 0.257 0.074 0.977 0.188 1.606 0.254 0.095 0.009 0.184 0.014 0.263 0.014 0.438 0 0.588-0.144 0.637-0.265 0.040-0.097 0.048-0.253-0.143-0.439zM11.947 11.75c-0.365-0.398-0.914-0.496-1.010-0.51-0.8-0.255-2.422-0.633-3.242-0.721-0.672-0.073-1.698-0.353-2.447-0.557l-0.341-0.093c-0.244-0.065-0.633-0.154-0.916-0.215-0.564-0.123-1.374-0.265-2.229-0.192-0.46 0.042-0.923 0.016-1.339-0.074 0.472-0.166 1.213-0.25 2.203-0.25 1.436 0 3.436 0.172 6.292 0.54 0.878 0.114 1.638 0.252 2.259 0.411 0.083 0.021 0.189 0.033 0.289 0.033 0.054 0 0.134-0.004 0.202-0.023l0.172-0.047c0.321-0.087 0.65-0.205 0.89-0.291 0.168-0.060 0.342-0.123 0.463-0.157 0.146-0.041 0.33-0.074 0.561-0.1 0.242-0.027 0.643-0.042 0.899-0.042 0.257 0 0.659 0.014 0.9 0.042 0.231 0.026 0.415 0.059 0.561 0.1 0.121 0.034 0.294 0.096 0.462 0.158l0.046 0.016c0.257 0.091 0.548 0.194 0.831 0.271l0.15 0.051c0.068 0.019 0.147 0.023 0.203 0.023 0.1 0 0.206-0.012 0.289-0.033 0.621-0.159 1.381-0.297 2.26-0.411 2.856-0.369 4.855-0.54 6.292-0.54 0.99 0 1.731 0.084 2.203 0.25-0.412 0.089-0.875 0.115-1.34 0.074-0.166-0.014-0.333-0.021-0.496-0.021-0.67 0-1.278 0.114-1.733 0.213-0.286 0.062-0.68 0.152-0.915 0.216l-0.328 0.089c-0.753 0.206-1.784 0.488-2.461 0.561-0.824 0.089-2.436 0.464-3.212 0.714-0.082 0.010-0.513 0.073-0.897 0.29-0.154 0.087-0.295 0.219-0.427 0.4-0.043-0.205-0.141-0.4-0.27-0.528l-0.285-0.28c-0.152-0.15-0.385-0.239-0.623-0.239-0.116 0-0.227 0.022-0.321 0.064l-0.737 0.321c-0.165 0.072-0.511 0.062-0.671-0.022l-0.526-0.268c-0.27-0.138-0.724-0.096-0.962 0.089l-0.441 0.34c-0.109 0.085-0.199 0.207-0.261 0.35zM12.347 12.672l-0.098-0.379-0.015-0.062c-0.040-0.179 0.052-0.433 0.196-0.545l0.44-0.34c0.131-0.101 0.429-0.129 0.576-0.053l0.526 0.27c0.255 0.131 0.718 0.145 0.981 0.030l0.736-0.321c0.15-0.065 0.429-0.013 0.545 0.102l0.284 0.281c0.136 0.133 0.218 0.413 0.177 0.598l-0.096 0.431c-0.031 0.139-0.176 0.227-0.325 0.192-0.573-0.13-1.211-0.195-1.894-0.195-0.71 0-1.329 0.072-1.724 0.133-0.13 0.019-0.246-0.038-0.309-0.141zM12.452 13.161c0.083 0.020 0.169 0.024 0.258 0.011 0.382-0.059 0.982-0.129 1.669-0.129 0.653 0 1.263 0.063 1.814 0.187 0.064 0.014-0.106 0.71-0.139 0.971s-0.051 0.719-0.040 1.020c0.012 0.313 0.076 0.72 0.145 0.925 0.010 0.030 0.024 0.062 0.038 0.095-0.445 0.273-1.053 0.411-1.809 0.411-0.732 0-1.411-0.132-1.723-0.203 0.027-0.11 0.050-0.219 0.066-0.316 0.050-0.298 0.090-0.762 0.090-1.035s-0.048-0.727-0.106-1.012l-0.101-0.489-0.163-0.435zM12.059 20.526c-0.313 0-0.837-0.038-1.169-0.086l-0.607-0.087-0.51-0.087c-0.273-0.047-0.936-0.221-1.477-0.388-0.192-0.060-0.383-0.092-0.551-0.092-0.239 0-0.421 0.061-0.529 0.178-0.077 0.083-0.112 0.189-0.102 0.306l0.189 2.101 0.029 1.166c0.012 0.506 0.145 1.335 0.46 1.544 0.159 0.106 0.343 0.335 0.395 0.49 0.037 0.11-0.014 0.413-0.181 0.656-0.182 0.264-0.456 0.738-0.611 1.058l-0.284 0.583-0.189 0.495c-0.007 0.018-0.013 0.033-0.019 0.047-0.055-0.184-0.086-0.453-0.068-0.616l0.044-0.4 0.087-1.158 0.058-0.481c0.034-0.284 0.060-0.6 0.060-0.736 0-0.139-0.027-0.39-0.061-0.572-0.033-0.174-0.142-0.551-0.24-0.841s-0.358-0.894-0.577-1.346c-0.214-0.443-0.471-1.042-0.574-1.335-0.108-0.307-0.311-0.747-0.454-0.982-0.133-0.218-0.239-0.496-0.251-0.609l-0.029-0.266-0.014-0.305c-0.004-0.090 0.079-0.288 0.224-0.404 0.162-0.13 0.399-0.286 0.518-0.341 0.124-0.059 0.468-0.167 0.751-0.236 0.286-0.069 0.92-0.125 1.415-0.125h0.926l2.846-0.146h0.291c0.098 0 0.207-0.037 0.31-0.104 1.408 0.822 1.646 2.516 1.686 3.121h-1.793zM15.401 20.611c-0.044-0.011-0.092-0.021-0.139-0.032-0.168-0.036-0.29-0.054-0.376-0.054-0.195-0.009-0.354-0.011-0.48-0.011-0.076 0-0.14 0.001-0.192 0.002-0.041-0.637-0.293-2.453-1.789-3.38 0.018-0.029 0.033-0.055 0.044-0.081 0.004-0.007 0.008-0.016 0.008-0.017 0.036-0.071 0.068-0.151 0.095-0.237 0.322 0.075 1.034 0.215 1.817 0.215 0.816 0 1.484-0.153 1.985-0.454 0.076 0.114 0.159 0.218 0.237 0.298l0.066 0.064 0.233 0.302c-0.48 0.318-1.713 1.347-1.51 3.387zM31.341 26.336c-0.067 0-0.142-0.004-0.227-0.012-0.61-0.064-1.302-0.172-1.542-0.242-0.207-0.060-0.517-0.287-0.661-0.485-0.199-0.274-0.588-0.512-0.887-0.541l-0.441-0.043-0.947-0.146c-0.511-0.078-1.209-0.238-1.557-0.356-0.344-0.117-0.8-0.313-1.017-0.438l-0.932-0.539c-0.294-0.172-0.763-0.405-1.042-0.521l-0.5-0.206-3.877-1.454c-0.657-0.247-1.375-0.486-1.933-0.643-0.287-2.2 1.177-3.109 1.443-3.255l0.284 0.277c0.338 0.328 0.97 0.825 1.41 1.11l0.769 0.498 0.677 0.505c0.364 0.271 0.85 0.712 1.083 0.983 0.239 0.277 0.81 0.747 1.314 1.024 0.337 0.184 0.635 0.338 0.86 0.444l0.876 0.414 0.597 0.218c0.321 0.119 0.969 0.433 1.444 0.701l0.881 0.5 0.714 0.364c0.402 0.205 1.057 0.465 1.46 0.581 0.381 0.109 0.871 0.31 1.091 0.446 0.222 0.138 0.627 0.467 0.9 0.732 0.020 0.018 0.032 0.033 0.041 0.044-0.039 0.016-0.122 0.038-0.28 0.038zM14.080 16.335c-0.064-0.035-0.085-0.11-0.053-0.169 0.033-0.059 0.109-0.080 0.166-0.050 0.003 0.002 0.126 0.067 0.285 0.067 0.093 0 0.18-0.022 0.258-0.066 0.052-0.031 0.135-0.010 0.168 0.048 0.016 0.029 0.019 0.063 0.010 0.094s-0.030 0.059-0.059 0.074c-0.116 0.065-0.244 0.098-0.378 0.098-0.19 0-0.341-0.067-0.397-0.095z"></path>
</symbol>
<symbol id="icon-cross" viewBox="0 0 32 32">
<path d="M31.708 25.708c-0-0-0-0-0-0l-9.708-9.708 9.708-9.708c0-0 0-0 0-0 0.105-0.105 0.18-0.227 0.229-0.357 0.133-0.356 0.057-0.771-0.229-1.057l-4.586-4.586c-0.286-0.286-0.702-0.361-1.057-0.229-0.13 0.048-0.252 0.124-0.357 0.228 0 0-0 0-0 0l-9.708 9.708-9.708-9.708c-0-0-0-0-0-0-0.105-0.104-0.227-0.18-0.357-0.228-0.356-0.133-0.771-0.057-1.057 0.229l-4.586 4.586c-0.286 0.286-0.361 0.702-0.229 1.057 0.049 0.13 0.124 0.252 0.229 0.357 0 0 0 0 0 0l9.708 9.708-9.708 9.708c-0 0-0 0-0 0-0.104 0.105-0.18 0.227-0.229 0.357-0.133 0.355-0.057 0.771 0.229 1.057l4.586 4.586c0.286 0.286 0.702 0.361 1.057 0.229 0.13-0.049 0.252-0.124 0.357-0.229 0-0 0-0 0-0l9.708-9.708 9.708 9.708c0 0 0 0 0 0 0.105 0.105 0.227 0.18 0.357 0.229 0.356 0.133 0.771 0.057 1.057-0.229l4.586-4.586c0.286-0.286 0.362-0.702 0.229-1.057-0.049-0.13-0.124-0.252-0.229-0.357z"></path>
</symbol>
</defs>
</svg>
